# xmcd CD database file
#
# Track frame offsets:
#	150
#	20175
#	42586
#	68172
#	93642
#	119720
#	148607
#	164843
#	193712
#
# Disc length: 3112 seconds
#
# Revision: 0
# Processed by: cddbd v1.5.2PL0 Copyright (c) Steve Scherf et al.
# Submitted via: CDex 1.70beta2
#
DISCID=910c2609
DTITLE=Carolyn Brandy - Skin Talk
DYEAR=1995
DGENRE=Jazz
TTITLE0=Odie
TTITLE1=Skin Talk
TTITLE2=Canela Con Bon Bon
TTITLE3=Don't Stop
TTITLE4=4 On The Floor
TTITLE5=Step By Stip
TTITLE6=Bridges
TTITLE7=Linda Mujer
TTITLE8=Grandma's Voice
EXTD=YEAR: 1995
EXTT0=
EXTT1=
EXTT2=
EXTT3=
EXTT4=
EXTT5=
EXTT6=
EXTT7=
EXTT8=
PLAYORDER=
